<svg width="24" height="24" viewBox="0 0 24 24" fill="none" xmlns="http://www.w3.org/2000/svg">
<path d="M2.00195 12.0023C2.00252 14.3836 2.85242 16.6867 4.39892 18.4975C5.94541 20.3083 8.08707 21.5081 10.439 21.8813V14.8923H7.90195V12.0023H10.442V9.80232C10.3859 9.28741 10.4438 8.76647 10.6118 8.27649C10.7797 7.78651 11.0535 7.33952 11.4136 6.96726C11.7737 6.59499 12.2114 6.3066 12.6956 6.12255C13.1797 5.9385 13.6985 5.86331 14.215 5.90232C14.965 5.91432 15.715 5.98132 16.455 6.10232V8.56132H15.191C14.9761 8.53319 14.7577 8.55369 14.5519 8.62131C14.346 8.68893 14.158 8.80194 14.0017 8.95199C13.8454 9.10204 13.7249 9.2853 13.6489 9.48822C13.573 9.69114 13.5436 9.90853 13.563 10.1243V12.0023H16.334L15.891 14.8933H13.563V21.8813C15.4506 21.583 17.2132 20.7501 18.6421 19.4811C20.071 18.2121 21.1064 16.5603 21.6257 14.7211C22.145 12.882 22.1264 10.9326 21.5721 9.10366C21.0179 7.27475 19.9512 5.64296 18.4983 4.40147C17.0455 3.15998 15.2673 2.36079 13.3743 2.09853C11.4814 1.83626 9.55287 2.1219 7.81721 2.92163C6.08154 3.72135 4.61137 5.00167 3.58076 6.611C2.55015 8.22033 2.00226 10.0913 2.00195 12.0023Z" fill="white"/>
</svg>
